<svg width="23" height="24" viewBox="0 0 23 24" fill="none" xmlns="http://www.w3.org/2000/svg">
<path fill-rule="evenodd" clip-rule="evenodd" d="M16.122 23H6.5678C3.0583 23 0.365945 21.7325 1.1307 16.6306L2.02117 9.71635C2.49259 7.17065 4.1164 6.19638 5.54115 6.19638H17.1906C18.6363 6.19638 20.1658 7.24399 20.7106 9.71635L21.601 16.6306C22.2505 21.1563 19.6315 23 16.122 23Z" stroke="white" stroke-linecap="round" stroke-linejoin="round"/>
<path d="M16.2793 5.94477C16.2793 3.21388 14.0654 1.00004 11.3345 1.00004C10.0194 0.994482 8.75636 1.51298 7.82451 2.4409C6.89267 3.36881 6.36882 4.62971 6.36884 5.94477" stroke="white" stroke-linecap="round" stroke-linejoin="round"/>
<path d="M14.7286 11.0981H14.6763" stroke="white" stroke-linecap="round" stroke-linejoin="round"/>
<path d="M8.05562 11.0981H8.00323" stroke="white" stroke-linecap="round" stroke-linejoin="round"/>
</svg>
