<svg width="36" height="23" viewBox="0 0 36 23" fill="none" xmlns="http://www.w3.org/2000/svg">
<path opacity="0.4" d="M14.5499 16.1465H2.71397C1.21598 16.1465 0 16.9736 0 17.9924C0 19.0099 1.21598 19.8384 2.71397 19.8384H14.5499C16.0478 19.8384 17.2639 19.0099 17.2639 17.9924C17.2639 16.9736 16.0478 16.1465 14.5499 16.1465Z" fill="white"/>
<path opacity="0.4" d="M35.9999 4.21033C35.9999 3.19281 34.7839 2.36572 33.2879 2.36572H21.4521C19.9541 2.36572 18.738 3.19281 18.738 4.21033C18.738 5.22922 19.9541 6.0563 21.4521 6.0563H33.2879C34.7839 6.0563 35.9999 5.22922 35.9999 4.21033Z" fill="white"/>
<path d="M12.3799 4.21022C12.3799 6.53638 9.60989 8.42179 6.18993 8.42179C2.77197 8.42179 0 6.53638 0 4.21022C0 1.88541 2.77197 0 6.18993 0C9.60989 0 12.3799 1.88541 12.3799 4.21022Z" fill="white"/>
<path d="M36 17.9436C36 20.2684 33.23 22.1538 29.81 22.1538C26.392 22.1538 23.62 20.2684 23.62 17.9436C23.62 15.6174 26.392 13.7321 29.81 13.7321C33.23 13.7321 36 15.6174 36 17.9436Z" fill="white"/>
</svg>
